<svg width="168" height="25" viewBox="0 0 168 25" fill="none" xmlns="http://www.w3.org/2000/svg">
<path d="M20.7969 1.15625L13.0312 24H7.75L0 1.15625H4.89062L9.1875 14.75C9.26042 14.9792 9.38021 15.4115 9.54688 16.0469C9.71354 16.6719 9.88021 17.3385 10.0469 18.0469C10.224 18.7448 10.3438 19.3229 10.4062 19.7812C10.4688 19.3229 10.5781 18.7448 10.7344 18.0469C10.901 17.349 11.0625 16.6875 11.2188 16.0625C11.3854 15.4271 11.5052 14.9896 11.5781 14.75L15.9062 1.15625H20.7969ZM37.6719 24L36.0156 18.5625H27.6875L26.0312 24H20.8125L28.875 1.0625H34.7969L42.8906 24H37.6719ZM34.8594 14.5L33.2031 9.1875C33.099 8.83333 32.9583 8.38021 32.7812 7.82812C32.6146 7.26562 32.4427 6.69792 32.2656 6.125C32.099 5.54167 31.9635 5.03646 31.8594 4.60938C31.7552 5.03646 31.6094 5.56771 31.4219 6.20312C31.2448 6.82812 31.0729 7.42188 30.9062 7.98438C30.7396 8.54688 30.6198 8.94792 30.5469 9.1875L28.9062 14.5H34.8594ZM53.0781 1.15625C56.026 1.15625 58.1771 1.79167 59.5312 3.0625C60.8854 4.32292 61.5625 6.0625 61.5625 8.28125C61.5625 9.28125 61.4115 10.2396 61.1094 11.1562C60.8073 12.0625 60.3125 12.8698 59.625 13.5781C58.9479 14.2865 58.0417 14.849 56.9062 15.2656C55.7708 15.6719 54.3698 15.875 52.7031 15.875H50.625V24H45.7812V1.15625H53.0781ZM52.8281 5.125H50.625V11.9062H52.2188C53.125 11.9062 53.9115 11.7865 54.5781 11.5469C55.2448 11.3073 55.7604 10.9323 56.125 10.4219C56.4896 9.91146 56.6719 9.25521 56.6719 8.45312C56.6719 7.32812 56.3594 6.49479 55.7344 5.95312C55.1094 5.40104 54.1406 5.125 52.8281 5.125ZM79.0312 24H65.875V1.15625H79.0312V5.125H70.7188V10.1406H78.4531V14.1094H70.7188V20H79.0312V24ZM97.2969 17.6562C97.2969 19.0104 96.9688 20.1875 96.3125 21.1875C95.6562 22.1875 94.6979 22.9583 93.4375 23.5C92.1875 24.0417 90.6667 24.3125 88.875 24.3125C88.0833 24.3125 87.3073 24.2604 86.5469 24.1562C85.7969 24.0521 85.0729 23.901 84.375 23.7031C83.6875 23.4948 83.0312 23.2396 82.4062 22.9375V18.4375C83.4896 18.9167 84.6146 19.349 85.7812 19.7344C86.9479 20.1198 88.1042 20.3125 89.25 20.3125C90.0417 20.3125 90.6771 20.2083 91.1562 20C91.6458 19.7917 92 19.5052 92.2188 19.1406C92.4375 18.776 92.5469 18.3594 92.5469 17.8906C92.5469 17.3177 92.3542 16.8281 91.9688 16.4219C91.5833 16.0156 91.0521 15.6354 90.375 15.2812C89.7083 14.9271 88.9531 14.5469 88.1094 14.1406C87.5781 13.8906 87 13.5885 86.375 13.2344C85.75 12.8698 85.1562 12.4271 84.5938 11.9062C84.0312 11.3854 83.5677 10.7552 83.2031 10.0156C82.849 9.26562 82.6719 8.36979 82.6719 7.32812C82.6719 5.96354 82.9844 4.79688 83.6094 3.82812C84.2344 2.85938 85.125 2.11979 86.2812 1.60938C87.4479 1.08854 88.8229 0.828125 90.4062 0.828125C91.5938 0.828125 92.724 0.96875 93.7969 1.25C94.8802 1.52083 96.0104 1.91667 97.1875 2.4375L95.625 6.20312C94.5729 5.77604 93.6302 5.44792 92.7969 5.21875C91.9635 4.97917 91.1146 4.85938 90.25 4.85938C89.6458 4.85938 89.1302 4.95833 88.7031 5.15625C88.276 5.34375 87.9531 5.61458 87.7344 5.96875C87.5156 6.3125 87.4062 6.71354 87.4062 7.17188C87.4062 7.71354 87.5625 8.17188 87.875 8.54688C88.1979 8.91146 88.6771 9.26562 89.3125 9.60938C89.9583 9.95312 90.7604 10.3542 91.7188 10.8125C92.8854 11.3646 93.8802 11.9427 94.7031 12.5469C95.5365 13.1406 96.1771 13.8438 96.625 14.6562C97.0729 15.4583 97.2969 16.4583 97.2969 17.6562ZM120.156 24H115.328V14.1406H106.281V24H101.438V1.15625H106.281V10.1094H115.328V1.15625H120.156V24ZM146.672 12.5469C146.672 14.3073 146.453 15.9115 146.016 17.3594C145.578 18.7969 144.911 20.0365 144.016 21.0781C143.13 22.1198 142.005 22.9219 140.641 23.4844C139.276 24.0365 137.661 24.3125 135.797 24.3125C133.932 24.3125 132.318 24.0365 130.953 23.4844C129.589 22.9219 128.458 22.1198 127.562 21.0781C126.677 20.0365 126.016 18.7917 125.578 17.3438C125.141 15.8958 124.922 14.2865 124.922 12.5156C124.922 10.151 125.307 8.09375 126.078 6.34375C126.859 4.58333 128.057 3.21875 129.672 2.25C131.286 1.28125 133.339 0.796875 135.828 0.796875C138.307 0.796875 140.344 1.28125 141.938 2.25C143.542 3.21875 144.729 4.58333 145.5 6.34375C146.281 8.10417 146.672 10.1719 146.672 12.5469ZM130 12.5469C130 14.1406 130.198 15.5156 130.594 16.6719C131 17.8177 131.63 18.7031 132.484 19.3281C133.339 19.9427 134.443 20.25 135.797 20.25C137.172 20.25 138.286 19.9427 139.141 19.3281C139.995 18.7031 140.615 17.8177 141 16.6719C141.396 15.5156 141.594 14.1406 141.594 12.5469C141.594 10.151 141.146 8.26562 140.25 6.89062C139.354 5.51562 137.88 4.82812 135.828 4.82812C134.464 4.82812 133.349 5.14062 132.484 5.76562C131.63 6.38021 131 7.26562 130.594 8.42188C130.198 9.56771 130 10.9427 130 12.5469ZM158.703 1.15625C161.651 1.15625 163.802 1.79167 165.156 3.0625C166.51 4.32292 167.188 6.0625 167.188 8.28125C167.188 9.28125 167.036 10.2396 166.734 11.1562C166.432 12.0625 165.938 12.8698 165.25 13.5781C164.573 14.2865 163.667 14.849 162.531 15.2656C161.396 15.6719 159.995 15.875 158.328 15.875H156.25V24H151.406V1.15625H158.703ZM158.453 5.125H156.25V11.9062H157.844C158.75 11.9062 159.536 11.7865 160.203 11.5469C160.87 11.3073 161.385 10.9323 161.75 10.4219C162.115 9.91146 162.297 9.25521 162.297 8.45312C162.297 7.32812 161.984 6.49479 161.359 5.95312C160.734 5.40104 159.766 5.125 158.453 5.125Z" fill="white"/>
</svg>
