<svg width="126" height="19" viewBox="0 0 126 19" fill="none" xmlns="http://www.w3.org/2000/svg">
<path d="M15.5977 0.867188L9.77344 18H5.8125L0 0.867188H3.66797L6.89062 11.0625C6.94531 11.2344 7.03516 11.5586 7.16016 12.0352C7.28516 12.5039 7.41016 13.0039 7.53516 13.5352C7.66797 14.0586 7.75781 14.4922 7.80469 14.8359C7.85156 14.4922 7.93359 14.0586 8.05078 13.5352C8.17578 13.0117 8.29688 12.5156 8.41406 12.0469C8.53906 11.5703 8.62891 11.2422 8.68359 11.0625L11.9297 0.867188H15.5977ZM28.2539 18L27.0117 13.9219H20.7656L19.5234 18H15.6094L21.6562 0.796875H26.0977L32.168 18H28.2539ZM26.1445 10.875L24.9023 6.89062C24.8242 6.625 24.7188 6.28516 24.5859 5.87109C24.4609 5.44922 24.332 5.02344 24.1992 4.59375C24.0742 4.15625 23.9727 3.77734 23.8945 3.45703C23.8164 3.77734 23.707 4.17578 23.5664 4.65234C23.4336 5.12109 23.3047 5.56641 23.1797 5.98828C23.0547 6.41016 22.9648 6.71094 22.9102 6.89062L21.6797 10.875H26.1445ZM39.8086 0.867188C42.0195 0.867188 43.6328 1.34375 44.6484 2.29688C45.6641 3.24219 46.1719 4.54688 46.1719 6.21094C46.1719 6.96094 46.0586 7.67969 45.832 8.36719C45.6055 9.04688 45.2344 9.65234 44.7188 10.1836C44.2109 10.7148 43.5312 11.1367 42.6797 11.4492C41.8281 11.7539 40.7773 11.9062 39.5273 11.9062H37.9688V18H34.3359V0.867188H39.8086ZM39.6211 3.84375H37.9688V8.92969H39.1641C39.8438 8.92969 40.4336 8.83984 40.9336 8.66016C41.4336 8.48047 41.8203 8.19922 42.0938 7.81641C42.3672 7.43359 42.5039 6.94141 42.5039 6.33984C42.5039 5.49609 42.2695 4.87109 41.8008 4.46484C41.332 4.05078 40.6055 3.84375 39.6211 3.84375ZM59.2734 18H49.4062V0.867188H59.2734V3.84375H53.0391V7.60547H58.8398V10.582H53.0391V15H59.2734V18ZM72.9727 13.2422C72.9727 14.2578 72.7266 15.1406 72.2344 15.8906C71.7422 16.6406 71.0234 17.2188 70.0781 17.625C69.1406 18.0312 68 18.2344 66.6562 18.2344C66.0625 18.2344 65.4805 18.1953 64.9102 18.1172C64.3477 18.0391 63.8047 17.9258 63.2812 17.7773C62.7656 17.6211 62.2734 17.4297 61.8047 17.2031V13.8281C62.6172 14.1875 63.4609 14.5117 64.3359 14.8008C65.2109 15.0898 66.0781 15.2344 66.9375 15.2344C67.5312 15.2344 68.0078 15.1562 68.3672 15C68.7344 14.8438 69 14.6289 69.1641 14.3555C69.3281 14.082 69.4102 13.7695 69.4102 13.418C69.4102 12.9883 69.2656 12.6211 68.9766 12.3164C68.6875 12.0117 68.2891 11.7266 67.7812 11.4609C67.2812 11.1953 66.7148 10.9102 66.082 10.6055C65.6836 10.418 65.25 10.1914 64.7812 9.92578C64.3125 9.65234 63.8672 9.32031 63.4453 8.92969C63.0234 8.53906 62.6758 8.06641 62.4023 7.51172C62.1367 6.94922 62.0039 6.27734 62.0039 5.49609C62.0039 4.47266 62.2383 3.59766 62.707 2.87109C63.1758 2.14453 63.8438 1.58984 64.7109 1.20703C65.5859 0.816406 66.6172 0.621094 67.8047 0.621094C68.6953 0.621094 69.543 0.726562 70.3477 0.9375C71.1602 1.14062 72.0078 1.4375 72.8906 1.82812L71.7188 4.65234C70.9297 4.33203 70.2227 4.08594 69.5977 3.91406C68.9727 3.73438 68.3359 3.64453 67.6875 3.64453C67.2344 3.64453 66.8477 3.71875 66.5273 3.86719C66.207 4.00781 65.9648 4.21094 65.8008 4.47656C65.6367 4.73438 65.5547 5.03516 65.5547 5.37891C65.5547 5.78516 65.6719 6.12891 65.9062 6.41016C66.1484 6.68359 66.5078 6.94922 66.9844 7.20703C67.4688 7.46484 68.0703 7.76562 68.7891 8.10938C69.6641 8.52344 70.4102 8.95703 71.0273 9.41016C71.6523 9.85547 72.1328 10.3828 72.4688 10.9922C72.8047 11.5938 72.9727 12.3438 72.9727 13.2422ZM90.1172 18H86.4961V10.6055H79.7109V18H76.0781V0.867188H79.7109V7.58203H86.4961V0.867188H90.1172V18ZM110.004 9.41016C110.004 10.7305 109.84 11.9336 109.512 13.0195C109.184 14.0977 108.684 15.0273 108.012 15.8086C107.348 16.5898 106.504 17.1914 105.48 17.6133C104.457 18.0273 103.246 18.2344 101.848 18.2344C100.449 18.2344 99.2383 18.0273 98.2148 17.6133C97.1914 17.1914 96.3438 16.5898 95.6719 15.8086C95.0078 15.0273 94.5117 14.0938 94.1836 13.0078C93.8555 11.9219 93.6914 10.7148 93.6914 9.38672C93.6914 7.61328 93.9805 6.07031 94.5586 4.75781C95.1445 3.4375 96.043 2.41406 97.2539 1.6875C98.4648 0.960938 100.004 0.597656 101.871 0.597656C103.73 0.597656 105.258 0.960938 106.453 1.6875C107.656 2.41406 108.547 3.4375 109.125 4.75781C109.711 6.07812 110.004 7.62891 110.004 9.41016ZM97.5 9.41016C97.5 10.6055 97.6484 11.6367 97.9453 12.5039C98.25 13.3633 98.7227 14.0273 99.3633 14.4961C100.004 14.957 100.832 15.1875 101.848 15.1875C102.879 15.1875 103.715 14.957 104.355 14.4961C104.996 14.0273 105.461 13.3633 105.75 12.5039C106.047 11.6367 106.195 10.6055 106.195 9.41016C106.195 7.61328 105.859 6.19922 105.188 5.16797C104.516 4.13672 103.41 3.62109 101.871 3.62109C100.848 3.62109 100.012 3.85547 99.3633 4.32422C98.7227 4.78516 98.25 5.44922 97.9453 6.31641C97.6484 7.17578 97.5 8.20703 97.5 9.41016ZM119.027 0.867188C121.238 0.867188 122.852 1.34375 123.867 2.29688C124.883 3.24219 125.391 4.54688 125.391 6.21094C125.391 6.96094 125.277 7.67969 125.051 8.36719C124.824 9.04688 124.453 9.65234 123.938 10.1836C123.43 10.7148 122.75 11.1367 121.898 11.4492C121.047 11.7539 119.996 11.9062 118.746 11.9062H117.188V18H113.555V0.867188H119.027ZM118.84 3.84375H117.188V8.92969H118.383C119.062 8.92969 119.652 8.83984 120.152 8.66016C120.652 8.48047 121.039 8.19922 121.312 7.81641C121.586 7.43359 121.723 6.94141 121.723 6.33984C121.723 5.49609 121.488 4.87109 121.02 4.46484C120.551 4.05078 119.824 3.84375 118.84 3.84375Z" fill="#232323"/>
</svg>
